<?xml version="1.0"?><svg width="400" height="400" xmlns="http://www.w3.org/2000/svg">
 <title>simple daisy</title>

 <g>
  <title>Layer 1</title>
  <path transform="rotate(-1.81733, 117.947, 140.291)" fill="#ffffff" fill-rule="evenodd" stroke="#000000" stroke-width="2.5" stroke-linecap="round" stroke-linejoin="round" stroke-miterlimit="4" id="path6320" d="m165.555496,177.100327c-12.720734,-17.046555 -24.040283,-35.242538 -37.713959,-51.512215c-12.55442,-9.240311 -20.949661,-26.537125 -36.442764,-30.085014c-9.316895,-0.780815 -24.368103,-9.22541 -20.810547,6.658073c1.4123,13.722443 12.902962,25.648331 22.061401,35.76342c9.59446,10.272064 19.852631,19.930847 32.154861,26.889328c11.599564,7.733032 23.199127,15.466064 34.798676,23.199097c6.611481,0.131027 6.631119,-6.107513 5.952332,-10.912689z"/>
  <path fill="#ffffff" fill-rule="evenodd" stroke="#000000" stroke-width="2.5" stroke-linecap="round" stroke-linejoin="round" stroke-miterlimit="4" id="path6321" d="m166.547562,171.108246c13.127274,5.488419 11.532471,-17.074753 6.752274,-24.111725c-5.987106,-17.629456 -11.718002,-35.348404 -18.067795,-52.852669c-8.881302,-10.475266 -14.026917,-25.019615 -25.922867,-32.296444c-8.165993,-6.466679 -24.56884,-14.83947 -22.274971,2.959034c-4.734245,13.441261 4.129204,26.256004 8.997124,38.357071c5.616371,11.411064 16.053238,18.855537 22.553299,29.679672c9.320999,12.75502 18.641968,25.510056 27.962936,38.26506z"/>
  <path fill="#ffffff" fill-rule="evenodd" stroke="#000000" stroke-width="2.5" stroke-linecap="round" stroke-linejoin="round" stroke-miterlimit="4" id="path6322" d="m179.777969,161.687637c8.761505,11.053711 7.133667,-12.303055 10.406128,-17.066757c3.174164,-12.991867 8.020645,-25.94397 5.325439,-39.44017c-1.045029,-16.896431 -1.974121,-33.921753 -7.388687,-50.09779c-2.633347,-8.098289 -13.101624,-22.261982 -19.071442,-9.373981c-8.659363,7.8508 -9.219788,20.615143 -10.252609,31.530319c-2.933319,14.316605 3.151688,27.422562 7.63002,40.656921c4.410446,13.994614 10.241394,27.769516 13.351151,42.038223c0,0.584412 0,1.753235 0,1.753235z"/>
  <path fill="#ffffff" fill-rule="evenodd" stroke="#000000" stroke-width="2.5" stroke-linecap="round" stroke-linejoin="round" stroke-miterlimit="4" id="path6323" d="m186.792923,160.986115c5.493683,10.95874 20.625626,7.267471 24.388611,-3.189133c14.29834,-17.142975 27.938004,-34.829903 39.688782,-53.82885c6.527908,-7.54493 8.609329,-17.127243 10.556931,-26.614601c3.244598,-8.371872 -0.704559,-21.60836 -5.344452,-25.90572c-7.863449,2.444508 -15.104828,-4.896152 -20.469574,4.858448c-10.507416,8.598328 -17.744003,20.654015 -24.527557,32.201614c-8.390106,18.351425 -16.489059,36.960846 -20.112808,56.939911c-1.337692,5.194229 -2.84613,10.342392 -4.179932,15.53833z"/>
  <path fill="#ffffff" fill-rule="evenodd" stroke="#000000" stroke-width="2.5" stroke-linecap="round" stroke-linejoin="round" stroke-miterlimit="4" id="path6324" d="m207.837784,165.896606c-6.108078,11.713165 6.353287,14.44809 15.143738,11.463165c15.229874,-9.212967 30.709778,-18.210098 43.701187,-30.539825c10.991638,-8.771851 17.384918,-21.644547 26.162048,-32.399094c6.399139,-8.950569 8.799896,-19.937416 13.20224,-29.897652c-13.752625,-4.940147 -26.212341,-0.67984 -37.81842,7.079506c-12.080872,6.547142 -21.605911,17.207947 -28.014786,29.262062c-10.166687,12.879936 -21.326965,24.987236 -30.473373,38.689766c-0.634201,2.114029 -1.268433,4.228058 -1.902634,6.342072z"/>
  <path transform="rotate(-12.2162, 271.971, 190.252)" fill="#ffffff" fill-rule="evenodd" stroke="#000000" stroke-width="2.5" stroke-linecap="round" stroke-linejoin="round" stroke-miterlimit="4" id="path6327" d="m216.852737,172.642944c17.999832,-1.296738 36.054916,-5.17244 54.027878,-1.495819c16.413452,2.041336 32.810364,6.091156 46.827179,15.212936c8.100677,2.084412 27.005341,14.856644 10.858887,19.515732c-8.742493,4.690567 -19.185486,3.95665 -28.766388,5.028244c-20.075134,-2.522308 -40.297974,-4.931061 -59.670853,-11.096191c-10.711365,-3.299393 -22.69487,-6.952438 -30.139145,-15.632355c-3.541183,-5.597717 3.805267,-8.237778 6.862442,-11.532547z"/>
  <path fill="#ffffff" fill-rule="evenodd" stroke="#000000" stroke-width="2.5" stroke-linecap="round" stroke-linejoin="round" stroke-miterlimit="4" id="path6328" d="m301.838104,227.628143c9.876068,6.38472 20.156403,28.196609 2.581329,29.783997c-14.113129,0.589508 -29.259918,-0.29361 -41.043365,-8.979599c-17.688293,-10.438156 -37.986099,-18.391403 -50.807495,-35.130569c-6.480362,-9.231918 4.467453,-11.916245 9.900803,-4.568253c12.821182,6.621689 27.497421,8.501465 41.473679,11.916336c12.655457,2.195145 25.269409,4.617752 37.89505,6.978088z"/>
  <path fill="#ffffff" fill-rule="evenodd" stroke="#000000" stroke-width="2.5" stroke-linecap="round" stroke-linejoin="round" stroke-miterlimit="4" id="path6330" d="m253.434952,280.941742c-1.638,9.224335 2.600052,20.915619 -4.172958,28.281769c-12.627197,3.059509 -21.86026,-9.195038 -29.111557,-17.685486c-8.062332,-14.437103 -17.625641,-28.271057 -21.776154,-44.512527c-3.137115,-9.8992 -5.262665,-20.652634 -5.291794,-30.791351c10.439209,-11.954041 24.104675,0.002991 29.687561,10.500748c8.612564,11.841064 20.503326,22.016876 24.239227,36.643372c2.141891,5.854492 4.283783,11.709015 6.425674,17.563477z"/>
  <path fill="#ffffff" fill-rule="evenodd" stroke="#000000" stroke-width="2.5" stroke-linecap="round" stroke-linejoin="round" stroke-miterlimit="4" id="path6333" d="m197.315323,243.061005c-2.259399,16.234406 -3.852676,32.825745 -11.370956,47.699677c-5.549591,12.340729 -12.717712,28.523529 -25.636978,32.874542c-11.806961,2.871582 -12.614426,-17.366119 -14.091675,-25.521393c1.035019,-16.092682 1.642334,-33.205231 10.715714,-47.161819c5.909576,-11.665558 11.515518,-23.487015 17.234604,-35.249283c10.949356,-5.617523 20.61496,1.111847 19.836578,13.003082c1.104248,4.785065 2.208466,9.570145 3.312714,14.355194z"/>
  <path transform="rotate(3.3181, 107.992, 220.672)" fill="#ffffff" fill-rule="evenodd" stroke="#000000" stroke-width="2.5" stroke-linecap="round" stroke-linejoin="round" stroke-miterlimit="4" id="path6336" d="m162.957047,201.792267c-13.1539,11.222717 -25.358368,23.57103 -39.232803,33.936813c-18.534897,7.45372 -37.030502,16.866898 -57.526512,16.505692c-6.607208,0.511414 -18.779053,0.480743 -10.228432,-8.698013c4.700844,-12.222656 15.303238,-20.747528 25.302834,-28.628952c10.985046,-7.003998 21.442841,-15.210663 34.262589,-18.61937c11.310478,-5.35791 23.917793,-7.233459 36.255898,-7.35321c4.989395,2.144897 9.830765,7.485947 11.166428,12.85704z"/>
  <path transform="rotate(5.40445, 97.3072, 175.939)" fill="#ffffff" fill-rule="evenodd" stroke="#000000" stroke-width="2.5" stroke-linecap="round" stroke-linejoin="round" stroke-miterlimit="4" id="path6338" d="m92.890823,195.767044c-10.006905,-0.554581 -20.200951,-1.135574 -29.142853,-6.448059c-10.111797,-4.08403 -19.15258,-10.725052 -27.56176,-17.683197c-6.045658,-13.464523 15.613552,-16.749374 24.655781,-15.153824c16.555286,-0.388336 33.102871,0.730576 49.586185,2.263565c16.395927,8.475052 33.840088,15.214127 48.610138,26.769913c3.528244,12.693268 -15.253204,1.503571 -22.353485,5.032898c-14.747673,-0.301483 -29.234344,3.175125 -43.794006,5.218704z"/>
  <path transform="rotate(-65.8309, 134.294, 260.439)" id="svg_1" fill="#ffffff" fill-rule="evenodd" stroke="#000000" stroke-width="2.5" stroke-linecap="round" stroke-linejoin="round" stroke-miterlimit="4" d="m79.177147,241.862885c17.999817,-1.367996 36.054901,-5.456665 54.027855,-1.578033c16.413452,2.153519 32.810364,6.425873 46.827179,16.048889c8.100677,2.198944 27.005341,15.672974 10.858887,20.588104c-8.742493,4.948303 -19.185486,4.174042 -28.766388,5.304535c-20.075134,-2.660919 -40.297974,-5.202026 -59.67086,-11.705933c-10.711365,-3.480682 -22.694855,-7.334442 -30.13913,-16.491318c-3.541168,-5.905304 3.805267,-8.69043 6.862457,-12.166245z"/>
  <path transform="rotate(38.6589, 271.834, 147.668)" id="svg_2" fill="#ffffff" fill-rule="evenodd" stroke="#000000" stroke-width="2.5" stroke-linecap="round" stroke-linejoin="round" stroke-miterlimit="4" d="m240.545059,201.920761c4.534027,11.513412 17.022751,7.635315 20.128433,-3.35054c11.80069,-18.010666 23.0578,-36.592819 32.755981,-56.553375c5.387573,-7.926819 7.105408,-17.994141 8.712799,-27.9617c2.677826,-8.795616 -0.581482,-22.702065 -4.410858,-27.216927c-6.489899,2.56823 -12.466309,-5.143974 -16.893982,5.104355c-8.671997,9.033524 -14.64444,21.699409 -20.243073,33.83149c-6.92453,19.280273 -13.60878,38.831604 -16.599518,59.821899c-1.10405,5.457138 -2.348969,10.865875 -3.449783,16.324799z"/>
  <ellipse ry="30.000001" rx="31.000001" id="svg_4" cy="190.250001" cx="187.833538" stroke-linecap="round" stroke-linejoin="round" stroke-width="2.5" stroke="#000000" fill="#b5b517"/>
 </g>
</svg>